<svg version="1.1" xmlns="http://www.w3.org/2000/svg" xmlns:xlink="http://www.w3.org/1999/xlink" width="764" height="494"><defs/><g><text fill="#eeeeee" stroke="none" font-family="Arial" font-size="24px" font-style="normal" font-weight="normal" text-decoration="none" x="0" y="0">UNREGISTERED</text><text fill="#eeeeee" stroke="none" font-family="Arial" font-size="24px" font-style="normal" font-weight="normal" text-decoration="none" x="0" y="30">UNREGISTERED</text><text fill="#eeeeee" stroke="none" font-family="Arial" font-size="24px" font-style="normal" font-weight="normal" text-decoration="none" x="0" y="60">UNREGISTERED</text><text fill="#eeeeee" stroke="none" font-family="Arial" font-size="24px" font-style="normal" font-weight="normal" text-decoration="none" x="0" y="90">UNREGISTERED</text><text fill="#eeeeee" stroke="none" font-family="Arial" font-size="24px" font-style="normal" font-weight="normal" text-decoration="none" x="0" y="120">UNREGISTERED</text><text fill="#eeeeee" stroke="none" font-family="Arial" font-size="24px" font-style="normal" font-weight="normal" text-decoration="none" x="0" y="150">UNREGISTERED</text><text fill="#eeeeee" stroke="none" font-family="Arial" font-size="24px" font-style="normal" font-weight="normal" text-decoration="none" x="0" y="180">UNREGISTERED</text><text fill="#eeeeee" stroke="none" font-family="Arial" font-size="24px" font-style="normal" font-weight="normal" text-decoration="none" x="0" y="210">UNREGISTERED</text><text fill="#eeeeee" stroke="none" font-family="Arial" font-size="24px" font-style="normal" font-weight="normal" text-decoration="none" x="0" y="240">UNREGISTERED</text><text fill="#eeeeee" stroke="none" font-family="Arial" font-size="24px" font-style="normal" font-weight="normal" text-decoration="none" x="0" y="270">UNREGISTERED</text><text fill="#eeeeee" stroke="none" font-family="Arial" font-size="24px" font-style="normal" font-weight="normal" text-decoration="none" x="0" y="300">UNREGISTERED</text><text fill="#eeeeee" stroke="none" font-family="Arial" font-size="24px" font-style="normal" font-weight="normal" text-decoration="none" x="0" y="330">UNREGISTERED</text><text fill="#eeeeee" stroke="none" font-family="Arial" font-size="24px" font-style="normal" font-weight="normal" text-decoration="none" x="0" y="360">UNREGISTERED</text><text fill="#eeeeee" stroke="none" font-family="Arial" font-size="24px" font-style="normal" font-weight="normal" text-decoration="none" x="0" y="390">UNREGISTERED</text><text fill="#eeeeee" stroke="none" font-family="Arial" font-size="24px" font-style="normal" font-weight="normal" text-decoration="none" x="0" y="420">UNREGISTERED</text><text fill="#eeeeee" stroke="none" font-family="Arial" font-size="24px" font-style="normal" font-weight="normal" text-decoration="none" x="0" y="450">UNREGISTERED</text><text fill="#eeeeee" stroke="none" font-family="Arial" font-size="24px" font-style="normal" font-weight="normal" text-decoration="none" x="0" y="480">UNREGISTERED</text><text fill="#eeeeee" stroke="none" font-family="Arial" font-size="24px" font-style="normal" font-weight="normal" text-decoration="none" x="200" y="0">UNREGISTERED</text><text fill="#eeeeee" stroke="none" font-family="Arial" font-size="24px" font-style="normal" font-weight="normal" text-decoration="none" x="200" y="30">UNREGISTERED</text><text fill="#eeeeee" stroke="none" font-family="Arial" font-size="24px" font-style="normal" font-weight="normal" text-decoration="none" x="200" y="60">UNREGISTERED</text><text fill="#eeeeee" stroke="none" font-family="Arial" font-size="24px" font-style="normal" font-weight="normal" text-decoration="none" x="200" y="90">UNREGISTERED</text><text fill="#eeeeee" stroke="none" font-family="Arial" font-size="24px" font-style="normal" font-weight="normal" text-decoration="none" x="200" y="120">UNREGISTERED</text><text fill="#eeeeee" stroke="none" font-family="Arial" font-size="24px" font-style="normal" font-weight="normal" text-decoration="none" x="200" y="150">UNREGISTERED</text><text fill="#eeeeee" stroke="none" font-family="Arial" font-size="24px" font-style="normal" font-weight="normal" text-decoration="none" x="200" y="180">UNREGISTERED</text><text fill="#eeeeee" stroke="none" font-family="Arial" font-size="24px" font-style="normal" font-weight="normal" text-decoration="none" x="200" y="210">UNREGISTERED</text><text fill="#eeeeee" stroke="none" font-family="Arial" font-size="24px" font-style="normal" font-weight="normal" text-decoration="none" x="200" y="240">UNREGISTERED</text><text fill="#eeeeee" stroke="none" font-family="Arial" font-size="24px" font-style="normal" font-weight="normal" text-decoration="none" x="200" y="270">UNREGISTERED</text><text fill="#eeeeee" stroke="none" font-family="Arial" font-size="24px" font-style="normal" font-weight="normal" text-decoration="none" x="200" y="300">UNREGISTERED</text><text fill="#eeeeee" stroke="none" font-family="Arial" font-size="24px" font-style="normal" font-weight="normal" text-decoration="none" x="200" y="330">UNREGISTERED</text><text fill="#eeeeee" stroke="none" font-family="Arial" font-size="24px" font-style="normal" font-weight="normal" text-decoration="none" x="200" y="360">UNREGISTERED</text><text fill="#eeeeee" stroke="none" font-family="Arial" font-size="24px" font-style="normal" font-weight="normal" text-decoration="none" x="200" y="390">UNREGISTERED</text><text fill="#eeeeee" stroke="none" font-family="Arial" font-size="24px" font-style="normal" font-weight="normal" text-decoration="none" x="200" y="420">UNREGISTERED</text><text fill="#eeeeee" stroke="none" font-family="Arial" font-size="24px" font-style="normal" font-weight="normal" text-decoration="none" x="200" y="450">UNREGISTERED</text><text fill="#eeeeee" stroke="none" font-family="Arial" font-size="24px" font-style="normal" font-weight="normal" text-decoration="none" x="200" y="480">UNREGISTERED</text><text fill="#eeeeee" stroke="none" font-family="Arial" font-size="24px" font-style="normal" font-weight="normal" text-decoration="none" x="400" y="0">UNREGISTERED</text><text fill="#eeeeee" stroke="none" font-family="Arial" font-size="24px" font-style="normal" font-weight="normal" text-decoration="none" x="400" y="30">UNREGISTERED</text><text fill="#eeeeee" stroke="none" font-family="Arial" font-size="24px" font-style="normal" font-weight="normal" text-decoration="none" x="400" y="60">UNREGISTERED</text><text fill="#eeeeee" stroke="none" font-family="Arial" font-size="24px" font-style="normal" font-weight="normal" text-decoration="none" x="400" y="90">UNREGISTERED</text><text fill="#eeeeee" stroke="none" font-family="Arial" font-size="24px" font-style="normal" font-weight="normal" text-decoration="none" x="400" y="120">UNREGISTERED</text><text fill="#eeeeee" stroke="none" font-family="Arial" font-size="24px" font-style="normal" font-weight="normal" text-decoration="none" x="400" y="150">UNREGISTERED</text><text fill="#eeeeee" stroke="none" font-family="Arial" font-size="24px" font-style="normal" font-weight="normal" text-decoration="none" x="400" y="180">UNREGISTERED</text><text fill="#eeeeee" stroke="none" font-family="Arial" font-size="24px" font-style="normal" font-weight="normal" text-decoration="none" x="400" y="210">UNREGISTERED</text><text fill="#eeeeee" stroke="none" font-family="Arial" font-size="24px" font-style="normal" font-weight="normal" text-decoration="none" x="400" y="240">UNREGISTERED</text><text fill="#eeeeee" stroke="none" font-family="Arial" font-size="24px" font-style="normal" font-weight="normal" text-decoration="none" x="400" y="270">UNREGISTERED</text><text fill="#eeeeee" stroke="none" font-family="Arial" font-size="24px" font-style="normal" font-weight="normal" text-decoration="none" x="400" y="300">UNREGISTERED</text><text fill="#eeeeee" stroke="none" font-family="Arial" font-size="24px" font-style="normal" font-weight="normal" text-decoration="none" x="400" y="330">UNREGISTERED</text><text fill="#eeeeee" stroke="none" font-family="Arial" font-size="24px" font-style="normal" font-weight="normal" text-decoration="none" x="400" y="360">UNREGISTERED</text><text fill="#eeeeee" stroke="none" font-family="Arial" font-size="24px" font-style="normal" font-weight="normal" text-decoration="none" x="400" y="390">UNREGISTERED</text><text fill="#eeeeee" stroke="none" font-family="Arial" font-size="24px" font-style="normal" font-weight="normal" text-decoration="none" x="400" y="420">UNREGISTERED</text><text fill="#eeeeee" stroke="none" font-family="Arial" font-size="24px" font-style="normal" font-weight="normal" text-decoration="none" x="400" y="450">UNREGISTERED</text><text fill="#eeeeee" stroke="none" font-family="Arial" font-size="24px" font-style="normal" font-weight="normal" text-decoration="none" x="400" y="480">UNREGISTERED</text><text fill="#eeeeee" stroke="none" font-family="Arial" font-size="24px" font-style="normal" font-weight="normal" text-decoration="none" x="600" y="0">UNREGISTERED</text><text fill="#eeeeee" stroke="none" font-family="Arial" font-size="24px" font-style="normal" font-weight="normal" text-decoration="none" x="600" y="30">UNREGISTERED</text><text fill="#eeeeee" stroke="none" font-family="Arial" font-size="24px" font-style="normal" font-weight="normal" text-decoration="none" x="600" y="60">UNREGISTERED</text><text fill="#eeeeee" stroke="none" font-family="Arial" font-size="24px" font-style="normal" font-weight="normal" text-decoration="none" x="600" y="90">UNREGISTERED</text><text fill="#eeeeee" stroke="none" font-family="Arial" font-size="24px" font-style="normal" font-weight="normal" text-decoration="none" x="600" y="120">UNREGISTERED</text><text fill="#eeeeee" stroke="none" font-family="Arial" font-size="24px" font-style="normal" font-weight="normal" text-decoration="none" x="600" y="150">UNREGISTERED</text><text fill="#eeeeee" stroke="none" font-family="Arial" font-size="24px" font-style="normal" font-weight="normal" text-decoration="none" x="600" y="180">UNREGISTERED</text><text fill="#eeeeee" stroke="none" font-family="Arial" font-size="24px" font-style="normal" font-weight="normal" text-decoration="none" x="600" y="210">UNREGISTERED</text><text fill="#eeeeee" stroke="none" font-family="Arial" font-size="24px" font-style="normal" font-weight="normal" text-decoration="none" x="600" y="240">UNREGISTERED</text><text fill="#eeeeee" stroke="none" font-family="Arial" font-size="24px" font-style="normal" font-weight="normal" text-decoration="none" x="600" y="270">UNREGISTERED</text><text fill="#eeeeee" stroke="none" font-family="Arial" font-size="24px" font-style="normal" font-weight="normal" text-decoration="none" x="600" y="300">UNREGISTERED</text><text fill="#eeeeee" stroke="none" font-family="Arial" font-size="24px" font-style="normal" font-weight="normal" text-decoration="none" x="600" y="330">UNREGISTERED</text><text fill="#eeeeee" stroke="none" font-family="Arial" font-size="24px" font-style="normal" font-weight="normal" text-decoration="none" x="600" y="360">UNREGISTERED</text><text fill="#eeeeee" stroke="none" font-family="Arial" font-size="24px" font-style="normal" font-weight="normal" text-decoration="none" x="600" y="390">UNREGISTERED</text><text fill="#eeeeee" stroke="none" font-family="Arial" font-size="24px" font-style="normal" font-weight="normal" text-decoration="none" x="600" y="420">UNREGISTERED</text><text fill="#eeeeee" stroke="none" font-family="Arial" font-size="24px" font-style="normal" font-weight="normal" text-decoration="none" x="600" y="450">UNREGISTERED</text><text fill="#eeeeee" stroke="none" font-family="Arial" font-size="24px" font-style="normal" font-weight="normal" text-decoration="none" x="600" y="480">UNREGISTERED</text><g transform="translate(2,-38) scale(1,1)"><rect fill="#ffffff" stroke="none" x="176" y="48" width="128" height="64"/></g><g transform="translate(2,-38) scale(1,1)"><path fill="none" stroke="#000000" d="M 176 48 L 304 48 L 304 112 L 176 112 L 176 48 Z Z" stroke-miterlimit="10"/></g><g transform="translate(2,-38) scale(1,1)"><g><path fill="none" stroke="none"/><text fill="#000000" stroke="none" font-family="Arial" font-size="13px" font-style="normal" font-weight="normal" text-decoration="none" x="192.668701171875" y="69">Data of previous</text><text fill="#000000" stroke="none" font-family="Arial" font-size="13px" font-style="normal" font-weight="normal" text-decoration="none" x="199.175048828125" y="82">covid cases in</text><text fill="#000000" stroke="none" font-family="Arial" font-size="13px" font-style="normal" font-weight="normal" text-decoration="none" x="225.19091796875" y="95">cities</text></g></g><g transform="translate(2,-38) scale(1,1)"><rect fill="#ffffff" stroke="none" x="312" y="224" width="104" height="45"/></g><g transform="translate(2,-38) scale(1,1)"><path fill="none" stroke="#000000" d="M 312 224 L 416 224 L 416 269 L 312 269 L 312 224 Z Z" stroke-miterlimit="10"/></g><g transform="translate(2,-38) scale(1,1)"><g><path fill="none" stroke="none"/><text fill="#000000" stroke="none" font-family="Arial" font-size="13px" font-style="normal" font-weight="normal" text-decoration="none" x="326.06640625" y="245">CompareThe</text><text fill="#000000" stroke="none" font-family="Arial" font-size="13px" font-style="normal" font-weight="normal" text-decoration="none" x="350.27001953125" y="258">Data</text></g></g><g transform="translate(2,-38) scale(1,1)"><rect fill="#ffffff" stroke="none" x="432" y="48" width="128" height="64"/></g><g transform="translate(2,-38) scale(1,1)"><path fill="none" stroke="#000000" d="M 432 48 L 560 48 L 560 112 L 432 112 L 432 48 Z Z" stroke-miterlimit="10"/></g><g transform="translate(2,-38) scale(1,1)"><g><path fill="none" stroke="none"/><text fill="#000000" stroke="none" font-family="Arial" font-size="13px" font-style="normal" font-weight="normal" text-decoration="none" x="450.83642578125" y="69">Present Data of</text><text fill="#000000" stroke="none" font-family="Arial" font-size="13px" font-style="normal" font-weight="normal" text-decoration="none" x="455.175048828125" y="82">covid cases in</text><text fill="#000000" stroke="none" font-family="Arial" font-size="13px" font-style="normal" font-weight="normal" text-decoration="none" x="481.19091796875" y="95">cities</text></g></g><g transform="translate(2,-38) scale(1,1)"><rect fill="#ffffff" stroke="none" x="312" y="144" width="104" height="45"/></g><g transform="translate(2,-38) scale(1,1)"><path fill="none" stroke="#000000" d="M 312 144 L 416 144 L 416 189 L 312 189 L 312 144 Z Z" stroke-miterlimit="10"/></g><g transform="translate(2,-38) scale(1,1)"><g><path fill="none" stroke="none"/><text fill="#000000" stroke="none" font-family="Arial" font-size="13px" font-style="normal" font-weight="normal" text-decoration="none" x="336.175048828125" y="165">Clean the</text><text fill="#000000" stroke="none" font-family="Arial" font-size="13px" font-style="normal" font-weight="normal" text-decoration="none" x="351.34912109375" y="178">data</text></g></g><g transform="translate(2,-38) scale(1,1)"><path fill="none" stroke="#000000" d="M 304 88 L 328 88 M 328 88 A 8 8 0 0 1 336 96 L 336 144" stroke-miterlimit="10"/></g><g transform="translate(2,-38) scale(1,1)"><path fill="#000000" stroke="none" d="M 331.790482243984 133.83732514237585 L 336 144 L 340.209517756016 133.83732514237585"/></g><g transform="translate(2,-38) scale(1,1)"><path fill="none" stroke="#000000" d="M 331.790482243984 133.83732514237585 L 336 144 L 340.209517756016 133.83732514237585 L 331.790482243984 133.83732514237585" stroke-miterlimit="10"/></g><g transform="translate(2,-38) scale(1,1)"><path fill="none" stroke="#000000" d="M 432 88 L 392 88 M 392 88 A 8 8 0 0 0 384 96 L 384 144" stroke-miterlimit="10"/></g><g transform="translate(2,-38) scale(1,1)"><path fill="#000000" stroke="none" d="M 379.790482243984 133.83732514237585 L 384 144 L 388.209517756016 133.83732514237585"/></g><g transform="translate(2,-38) scale(1,1)"><path fill="none" stroke="#000000" d="M 379.790482243984 133.83732514237585 L 384 144 L 388.209517756016 133.83732514237585 L 379.790482243984 133.83732514237585" stroke-miterlimit="10"/></g><g transform="translate(2,-38) scale(1,1)"><path fill="none" stroke="#000000" d="M 364 189 L 364 224" stroke-miterlimit="10"/></g><g transform="translate(2,-38) scale(1,1)"><path fill="#000000" stroke="none" d="M 359.790482243984 213.83732514237585 L 364 224 L 368.209517756016 213.83732514237585"/></g><g transform="translate(2,-38) scale(1,1)"><path fill="none" stroke="#000000" d="M 359.790482243984 213.83732514237585 L 364 224 L 368.209517756016 213.83732514237585 L 359.790482243984 213.83732514237585" stroke-miterlimit="10"/></g><g transform="translate(2,-38) scale(1,1)"><path fill="#ffffff" stroke="none" d="M 184 352 L 364 312 L 544 352 L 364 392 L 184 352"/></g><g transform="translate(2,-38) scale(1,1)"><path fill="none" stroke="#000000" d="M 184 352 L 364 312 L 544 352 L 364 392 L 184 352 L 184 352" stroke-miterlimit="10"/></g><g transform="translate(2,-38) scale(1,1)"><g><path fill="none" stroke="none"/><text fill="#000000" stroke="none" font-family="Arial" font-size="13px" font-style="normal" font-weight="normal" text-decoration="none" x="290.656005859375" y="350.5">If cases are under control</text><text fill="#000000" stroke="none" font-family="Arial" font-size="13px" font-style="normal" font-weight="normal" text-decoration="none" x="287.037841796875" y="363.5">compared to previous data</text></g></g><g transform="translate(2,-38) scale(1,1)"><path fill="none" stroke="#000000" d="M 366 269 L 366 312" stroke-miterlimit="10"/></g><g transform="translate(2,-38) scale(1,1)"><path fill="#000000" stroke="none" d="M 361.790482243984 301.83732514237585 L 366 312 L 370.209517756016 301.83732514237585"/></g><g transform="translate(2,-38) scale(1,1)"><path fill="none" stroke="#000000" d="M 361.790482243984 301.83732514237585 L 366 312 L 370.209517756016 301.83732514237585 L 361.790482243984 301.83732514237585" stroke-miterlimit="10"/></g><g transform="translate(2,-38) scale(1,1)"><rect fill="#ffffff" stroke="none" x="648" y="320" width="73.18994140625" height="71"/></g><g transform="translate(2,-38) scale(1,1)"><path fill="none" stroke="#000000" d="M 648 320 L 721.18994140625 320 L 721.18994140625 391 L 648 391 L 648 320 Z Z" stroke-miterlimit="10"/></g><g transform="translate(2,-38) scale(1,1)"><g><path fill="none" stroke="none"/><text fill="#000000" stroke="none" font-family="Arial" font-size="13px" font-style="normal" font-weight="normal" text-decoration="none" x="662.197265625" y="341">Declare</text><text fill="#000000" stroke="none" font-family="Arial" font-size="13px" font-style="normal" font-weight="normal" text-decoration="none" x="672.674072265625" y="354">it as</text><text fill="#000000" stroke="none" font-family="Arial" font-size="13px" font-style="normal" font-weight="normal" text-decoration="none" x="667.970458984375" y="365.5">green</text><text fill="#000000" stroke="none" font-family="Arial" font-size="13px" font-style="normal" font-weight="normal" text-decoration="none" x="671.58544921875" y="378.5">area</text></g></g><g transform="translate(2,-38) scale(1,1)"><rect fill="#ffffff" stroke="none" x="616" y="416" width="136" height="71"/></g><g transform="translate(2,-38) scale(1,1)"><path fill="none" stroke="#000000" d="M 616 416 L 752 416 L 752 487 L 616 487 L 616 416 Z Z" stroke-miterlimit="10"/></g><g transform="translate(2,-38) scale(1,1)"><g><path fill="none" stroke="none"/><text fill="#000000" stroke="none" font-family="Arial" font-size="13px" font-style="normal" font-weight="normal" text-decoration="none" x="653.2900390625" y="437">Take basic</text><text fill="#000000" stroke="none" font-family="Arial" font-size="13px" font-style="normal" font-weight="normal" text-decoration="none" x="647.148681640625" y="449.5">necessary to</text><text fill="#000000" stroke="none" font-family="Arial" font-size="13px" font-style="normal" font-weight="normal" text-decoration="none" x="638.474609375" y="463">prevent existing</text><text fill="#000000" stroke="none" font-family="Arial" font-size="13px" font-style="normal" font-weight="normal" text-decoration="none" x="667.02001953125" y="474.5">cases</text></g></g><g transform="translate(2,-38) scale(1,1)"><path fill="none" stroke="#000000" d="M 684 391 L 684 416" stroke-miterlimit="10"/></g><g transform="translate(2,-38) scale(1,1)"><path fill="#000000" stroke="none" d="M 679.790482243984 405.83732514237585 L 684 416 L 688.209517756016 405.83732514237585"/></g><g transform="translate(2,-38) scale(1,1)"><path fill="none" stroke="#000000" d="M 679.790482243984 405.83732514237585 L 684 416 L 688.209517756016 405.83732514237585 L 679.790482243984 405.83732514237585" stroke-miterlimit="10"/></g><g transform="translate(2,-38) scale(1,1)"><path fill="none" stroke="#000000" d="M 544 352 L 648 352" stroke-miterlimit="10"/></g><g transform="translate(2,-38) scale(1,1)"><path fill="#000000" stroke="none" d="M 637.8373251423759 356.209517756016 L 648 352 L 637.8373251423758 347.790482243984"/></g><g transform="translate(2,-38) scale(1,1)"><path fill="none" stroke="#000000" d="M 637.8373251423759 356.209517756016 L 648 352 L 637.8373251423758 347.790482243984 L 637.8373251423759 356.209517756016" stroke-miterlimit="10"/></g><g transform="translate(2,-38) scale(1,1)"><g><path fill="none" stroke="none"/><text fill="#000000" stroke="none" font-family="Arial" font-size="13px" font-style="normal" font-weight="normal" text-decoration="none" x="585.5" y="342">Yes</text></g></g><g transform="translate(2,-38) scale(1,1)"><rect fill="#ffffff" stroke="none" x="24" y="328" width="92.71533203125" height="58"/></g><g transform="translate(2,-38) scale(1,1)"><path fill="none" stroke="#000000" d="M 24 328 L 116.71533203125 328 L 116.71533203125 386 L 24 386 L 24 328 Z Z" stroke-miterlimit="10"/></g><g transform="translate(2,-38) scale(1,1)"><g><path fill="none" stroke="none"/><text fill="#000000" stroke="none" font-family="Arial" font-size="13px" font-style="normal" font-weight="normal" text-decoration="none" x="34.233154296875" y="349">Declare it as</text><text fill="#000000" stroke="none" font-family="Arial" font-size="13px" font-style="normal" font-weight="normal" text-decoration="none" x="59.1572265625" y="362">red/</text><text fill="#000000" stroke="none" font-family="Arial" font-size="13px" font-style="normal" font-weight="normal" text-decoration="none" x="33.5" y="375">isolationarea</text></g></g><g transform="translate(2,-38) scale(1,1)"><rect fill="#ffffff" stroke="none" x="8" y="464" width="232" height="58"/></g><g transform="translate(2,-38) scale(1,1)"><path fill="none" stroke="#000000" d="M 8 464 L 240 464 L 240 522 L 8 522 L 8 464 Z Z" stroke-miterlimit="10"/></g><g transform="translate(2,-38) scale(1,1)"><g><path fill="none" stroke="none"/><text fill="#000000" stroke="none" font-family="Arial" font-size="13px" font-style="normal" font-weight="normal" text-decoration="none" x="26.795166015625" y="485">vaccinating people in the isolation</text><text fill="#000000" stroke="none" font-family="Arial" font-size="13px" font-style="normal" font-weight="normal" text-decoration="none" x="21.748779296875" y="498">area, avoiding physical contact with</text><text fill="#000000" stroke="none" font-family="Arial" font-size="13px" font-style="normal" font-weight="normal" text-decoration="none" x="104.128662109375" y="511">others.</text></g></g><g transform="translate(2,-38) scale(1,1)"><path fill="none" stroke="#000000" d="M 64 386 L 64 464" stroke-miterlimit="10"/></g><g transform="translate(2,-38) scale(1,1)"><path fill="#000000" stroke="none" d="M 59.790482243984016 453.83732514237585 L 64 464 L 68.20951775601598 453.83732514237585"/></g><g transform="translate(2,-38) scale(1,1)"><path fill="none" stroke="#000000" d="M 59.790482243984016 453.83732514237585 L 64 464 L 68.20951775601598 453.83732514237585 L 59.790482243984016 453.83732514237585" stroke-miterlimit="10"/></g><g transform="translate(2,-38) scale(1,1)"><path fill="none" stroke="#000000" d="M 184 352 L 117 352" stroke-miterlimit="10"/></g><g transform="translate(2,-38) scale(1,1)"><path fill="#000000" stroke="none" d="M 127.16267485762415 347.790482243984 L 117 352 L 127.16267485762415 356.209517756016"/></g><g transform="translate(2,-38) scale(1,1)"><path fill="none" stroke="#000000" d="M 127.16267485762415 347.790482243984 L 117 352 L 127.16267485762415 356.209517756016 L 127.16267485762415 347.790482243984" stroke-miterlimit="10"/></g><g transform="translate(2,-38) scale(1,1)"><g><path fill="none" stroke="none"/><text fill="#000000" stroke="none" font-family="Arial" font-size="13px" font-style="normal" font-weight="normal" text-decoration="none" x="140.5" y="372">No</text></g></g></g></svg>